<?xml version="1.0" encoding="UTF-8"?>
<svg id="Layer_2" data-name="Layer 2" xmlns="http://www.w3.org/2000/svg" viewBox="0 0 150.73 150.73">
  <defs>
    <style>
      .cls-1 {
        fill: #fff;
      }

      .cls-2 {
        fill: #163bd2;
      }
    </style>
  </defs>
  <g id="Layer_1-2" data-name="Layer 1">
    <g>
      <rect class="cls-2" width="150.73" height="150.73"/>
      <g>
        <path class="cls-1" d="M76.19,24.09l-.82-1.52-.82,1.52c-33.96,64.81-18.19,82.1-6.99,86.72,2.54,1.09,5.08,1.65,7.62,1.67.12,0,.19,0,.19,0,0,0,.08,0,.21,0,2.13-.03,4.25-.43,6.37-1.21,11.19-3.86,29.46-19.97-5.76-87.18ZM75.85,104.6c-.3.02-.6.02-.91,0-32.39-1.83.41-80.5.42-80.52,0,.01,32.76,78.57.49,80.51Z"/>
        <path class="cls-1" d="M91.74,114.25c-5.81,4.43-11.54,5.99-16.67,6.05-5.13-.05-10.86-1.61-16.67-6.05-9.06-6.9-12.11-5.55-16.04-3.76,2.88.07,4.86,3.84,10.75,8.79,1.54,1.39,4.05,3.38,7.33,5.14.41.23,1.29.69,2.54,1.22,4.73,2.04,10.69,3.32,17.47,1.94,1.05-.2,1.93-.42,2.59-.61,2.71-.72,4.21-1.41,4.58-1.58,2.32-1,4.72-2.4,7.17-4.31,7.9-6.15,10.38-10.33,13.57-10.5-4.13-1.7-7.51-3.29-16.63,3.67Z"/>
      </g>
    </g>
  </g>
</svg>