<?xml version="1.0" encoding="UTF-8"?>
<svg id="Layer_2" data-name="Layer 2" xmlns="http://www.w3.org/2000/svg" viewBox="0 0 183.18 54.9">
  <defs>
    <style>
      .cls-1 {
        fill: #163bd2;
      }
    </style>
  </defs>
  <g id="Layer_1-2" data-name="Layer 1">
    <g>
      <g>
        <path class="cls-1" d="M166.56.79l-.43-.79-.42.79c-17.54,33.47-9.39,42.4-3.61,44.79,1.31.56,2.63.85,3.93.86.06,0,.1,0,.1,0,0,0,.04,0,.11,0,1.1-.01,2.19-.22,3.29-.63,5.78-1.99,15.21-10.32-2.98-45.02ZM166.39,42.37c-.16,0-.31,0-.47,0-16.73-.95.21-41.58.21-41.58,0,0,16.92,40.58.25,41.58Z"/>
        <path class="cls-1" d="M174.59,47.35c-3,2.29-5.96,3.1-8.61,3.12-2.65-.03-5.61-.83-8.61-3.12-4.68-3.57-6.25-2.87-8.28-1.94,1.48.04,2.51,1.98,5.55,4.54.79.72,2.09,1.75,3.79,2.65.21.12.66.36,1.31.63,2.44,1.06,5.52,1.71,9.02,1,.54-.1.99-.22,1.34-.31,1.4-.37,2.18-.73,2.36-.82,1.2-.51,2.44-1.24,3.7-2.23,4.08-3.17,5.36-5.34,7.01-5.42-2.13-.88-3.88-1.7-8.59,1.89Z"/>
      </g>
      <g>
        <path class="cls-1" d="M26.84,17.51c0,2.76-.92,3.17-3.14,3.17h-6.04c-2.06,0-2.2-.32-2.93-2.44l-2.69-10.45-3.85,1.3,2.57,9.73c-.33.32-1.06.92-2.29,1.3-1.72.53-4.24.67-7.65-.56-.13-.05-.26-.09-.39-.15l-.43,4.08s9.92,2.7,12.29-1.58l.26.46c1.04,1.55,2.46,1.96,5.07,1.97h6.08c3.8,0,6.8-1.93,6.8-7.2v-6.19l-3.66-.5v7.07Z"/>
        <path class="cls-1" d="M121.8,17.41c0,2.85-.92,3.27-3.14,3.27h-.25c-3.2,0-3.38-.64-3.38-3.27v-6.43l-3.66-.56v7.37c0,1.63-.22,2.49-1.13,2.89-.47.2-1.12.28-2.01.28s-1.48-.08-1.9-.28c-.86-.41-.91-1.33-.91-3.01v-5.02l-3.65-.35v5.49c0,1.63-.22,2.49-1.13,2.89-.47.2-1.12.28-2.01.28s-1.48-.08-1.9-.28c-.86-.41-.91-1.33-.91-3.01v-4.84l-3.66-.53v5.21c0,2.6-.6,3.17-3.55,3.17h-40.27c-.06-6.63-2.85-10.3-6.98-10.3s-6.59,3.65-6.59,8.12c0,3.84,2.28,5.83,6.31,5.83h3.88c-.42,3.01-2.26,4.35-7.1,4.35,0,0-1.63,0-2.21-.06v3.65l2.21.06c6.84,0,9.94-3.17,10.38-7.99h40.38c.13,0,.25,0,.37,0h0s4.38,0,4.38,0c.49-.15.99-.38,1.43-.71h0c.45-.34.83-.8,1.06-1.41.46,1.2,1.49,1.81,2.5,2.11h4.57c.53-.16,1.07-.41,1.53-.79.41-.33.75-.76.97-1.33.46,1.2,1.49,1.81,2.5,2.11h4.62c.6-.18,1.21-.47,1.7-.93.33-.31.61-.7.8-1.18.44,1.16,1.42,1.76,2.39,2.08.04.01.07.02.1.03h1.13c3.8,0,6.8-1.97,6.8-7.26V1.5l-3.66-.53v16.44ZM41.52,20.68c-2.54,0-3.9-.48-3.9-2.51,0-2.6,1.49-4.28,3.68-4.28,2.57,0,3.8,2.35,3.83,6.79h-3.61Z"/>
        <polygon class="cls-1" points="129.05 .97 129.05 24.32 132.71 24.32 132.71 1.5 129.05 .97"/>
        <path class="cls-1" d="M17.85,29.28c0-1.31.91-2.22,2.22-2.22s2.24.91,2.24,2.22-.93,2.22-2.24,2.22-2.22-.91-2.22-2.22Z"/>
        <path class="cls-1" d="M12.68,29.28c0-1.31.91-2.22,2.22-2.22s2.24.91,2.24,2.22-.93,2.22-2.24,2.22-2.22-.91-2.22-2.22Z"/>
        <path class="cls-1" d="M.18,45.7c0-5.37,3.8-9.01,8.78-9.01,2.97,0,4.93,1.09,6.23,2.75v-2.38l3.6.53v16.95h-3.6v-2.38c-1.29,1.66-3.26,2.75-6.23,2.75C3.99,54.9.18,51.07.18,45.7ZM9.39,39.93c-3.37,0-5.61,2.55-5.61,5.77s2.24,5.95,5.61,5.95,5.77-2.73,5.77-5.95-2.42-5.77-5.77-5.77Z"/>
        <path class="cls-1" d="M27,54.53h-3.6v-23.29l3.6.53v22.76Z"/>
        <path class="cls-1" d="M39.01,44.41c3.55.73,5.44,2.22,5.44,5.26,0,3.53-2.88,5.23-7.12,5.23-2.66,0-5.13-.49-6.65-1.31l.44-3.11c1.78.78,4.02,1.26,5.97,1.26,2.62,0,3.84-.66,3.84-2,0-1.18-.95-1.82-3.2-2.28l-2.59-.53c-3.08-.62-4.72-2.38-4.72-5.08,0-2.97,2.91-5.15,7.28-5.15,2.15,0,4.42.42,5.88,1.06l-.38,3.13c-1.42-.62-3.5-1.02-5.32-1.02-2.64,0-3.95.75-3.95,2.04,0,1.09.82,1.64,3.02,2.09l2.04.42Z"/>
        <path class="cls-1" d="M65.3,51l3.84-13.95h3.81l-5.15,17.48h-4.92l-3.57-12.43-3.57,12.43h-4.92l-5.15-17.48h3.8l3.84,13.95,4.08-13.76h3.82l4.08,13.76Z"/>
        <path class="cls-1" d="M90.81,53.19c-2.02,1.15-4.22,1.71-6.66,1.71-5.88,0-9.94-3.71-9.94-9.1s3.77-9.1,8.99-9.1c5.68,0,9.34,4.73,8.3,10.41h-13.6c.64,2.86,2.86,4.44,6.24,4.44,2.04,0,3.79-.53,6.12-1.64l.55,3.28ZM88.24,44.23c-.24-2.53-2.06-4.24-4.93-4.24s-5.02,1.71-5.3,4.24h10.23Z"/>
        <path class="cls-1" d="M110.53,53.19c-2.02,1.15-4.22,1.71-6.66,1.71-5.88,0-9.94-3.71-9.94-9.1s3.77-9.1,8.99-9.1c5.68,0,9.34,4.73,8.3,10.41h-13.6c.64,2.86,2.86,4.44,6.24,4.44,2.04,0,3.79-.53,6.12-1.64l.55,3.28ZM107.96,44.23c-.24-2.53-2.06-4.24-4.93-4.24s-5.02,1.71-5.3,4.24h10.23Z"/>
        <path class="cls-1" d="M113.66,45.7c0-5.37,3.8-9.01,8.78-9.01,2.97,0,4.93,1.09,6.23,2.75v-8.46l3.6.53v23.02h-3.6v-2.38c-1.29,1.66-3.26,2.75-6.23,2.75-4.97,0-8.78-3.82-8.78-9.19ZM122.87,39.93c-3.37,0-5.61,2.55-5.61,5.77s2.24,5.95,5.61,5.95,5.77-2.73,5.77-5.95-2.42-5.77-5.77-5.77Z"/>
      </g>
    </g>
  </g>
</svg>